<svg width="28" height="28" viewBox="0 0 28 28" fill="none" xmlns="http://www.w3.org/2000/svg">
<path fill-rule="evenodd" clip-rule="evenodd" d="M24.2084 8.16666C24.2084 8.64991 23.8166 9.04166 23.3334 9.04166L4.66671 9.04166C4.18346 9.04166 3.79171 8.64991 3.79171 8.16666C3.79171 7.68341 4.18346 7.29166 4.66671 7.29166L23.3334 7.29166C23.8166 7.29166 24.2084 7.68341 24.2084 8.16666Z" fill="white"/>
<path fill-rule="evenodd" clip-rule="evenodd" d="M24.2084 14C24.2084 14.4832 23.8166 14.875 23.3334 14.875L4.66671 14.875C4.18346 14.875 3.79171 14.4832 3.79171 14C3.79171 13.5168 4.18346 13.125 4.66671 13.125L23.3334 13.125C23.8166 13.125 24.2084 13.5168 24.2084 14Z" fill="white"/>
<path fill-rule="evenodd" clip-rule="evenodd" d="M24.2084 19.8333C24.2084 20.3166 23.8166 20.7083 23.3334 20.7083L4.66671 20.7083C4.18346 20.7083 3.79171 20.3166 3.79171 19.8333C3.79171 19.3501 4.18346 18.9583 4.66671 18.9583L23.3334 18.9583C23.8166 18.9583 24.2084 19.3501 24.2084 19.8333Z" fill="white"/>
</svg>
